<svg width="501" height="66" viewBox="0 0 501 66" fill="none" xmlns="http://www.w3.org/2000/svg">
<path fill-rule="evenodd" clip-rule="evenodd" d="M14.202 8.185L0 16.369L0.000999451 32.869L0.00299931 49.369L13.723 57.286L27.443 65.202H28.466H29.489L43.209 57.286L56.929 49.369L56.941 32.869L56.953 16.369L48.232 11.369L39.51 6.369L33.958 3.185L28.405 0L14.202 8.185ZM34.346 14.369L38.986 21.369L28.846 21.655L18.706 21.942L18.284 21.52L17.863 21.099L23.095 13.465L28.327 5.83L29.016 6.6L29.705 7.369L34.346 14.369ZM17.045 15.752L12.945 21.789L9.413 19.705L5.881 17.621L6.173 17.34L6.466 17.058L13.439 13.02L20.413 8.983L20.779 9.349L21.145 9.715L17.045 15.752ZM49.26 16.414L51.054 17.619L47.52 19.704L43.987 21.789L39.976 15.884L35.966 9.979V9.35V8.722L41.716 11.966L47.466 15.21L49.26 16.414ZM9.116 24.046L10.766 25.369L7.45 32.369L4.133 39.369L4.05 30.084L3.966 20.799L5.716 21.761L7.466 22.722L9.116 24.046ZM52.907 30.119L52.847 39.369L49.419 32.369L45.99 25.369L45.978 25.217L45.966 25.065L49.216 22.984L52.466 20.903L52.716 20.886L52.966 20.869L52.907 30.119ZM39.681 26.619L39.278 27.369L33.998 36.619L28.717 45.869H28.429H28.141L23.697 38.119L19.253 30.369L18.074 28.119L16.896 25.869H28.49H40.084L39.681 26.619ZM18.551 36.628L22.298 43.369L23.794 45.691L25.291 48.014L15.378 47.31L5.466 46.606L5.166 46.354L4.865 46.102L9.109 37.546L13.352 28.989L14.078 29.438L14.804 29.887L18.551 36.628ZM51.779 46.341L51.466 46.606L41.592 47.307L31.717 48.008L33.71 44.688L35.703 41.369L38.507 36.369L41.31 31.369L42.334 30.031L43.357 28.693L47.724 37.385L52.092 46.076L51.779 46.341ZM21.716 51.517L26.966 52.148V56.115V60.083L25.716 59.592L24.466 59.101L17.466 55.002L10.466 50.904L13.466 50.895L16.466 50.886L21.716 51.517ZM38.737 55.369L31.049 59.869H30.508H29.966V55.929V51.99L33.716 51.597L37.466 51.205L41.945 51.037L46.424 50.869L38.737 55.369Z" fill="white"/>
<path d="M82.424 36.136V45H77.016V36.136L68.568 21.688H73.336C73.8053 21.688 74.1733 21.8 74.44 22.024C74.7173 22.2373 74.9467 22.5147 75.128 22.856L78.424 29.64C78.7013 30.1733 78.952 30.6747 79.176 31.144C79.4 31.6027 79.5973 32.056 79.768 32.504C79.928 32.0453 80.1093 31.5867 80.312 31.128C80.5253 30.6587 80.7707 30.1627 81.048 29.64L84.312 22.856C84.3867 22.7173 84.4773 22.5787 84.584 22.44C84.6907 22.3013 84.8133 22.1787 84.952 22.072C85.1013 21.9547 85.2667 21.864 85.448 21.8C85.64 21.7253 85.848 21.688 86.072 21.688H90.872L82.424 36.136ZM98.7188 34.712C98.7188 34.3173 98.6654 33.9333 98.5588 33.56C98.4628 33.1867 98.2974 32.856 98.0628 32.568C97.8388 32.2693 97.5401 32.0293 97.1668 31.848C96.7934 31.6667 96.3401 31.576 95.8068 31.576C94.8681 31.576 94.1321 31.848 93.5988 32.392C93.0654 32.9253 92.7134 33.6987 92.5428 34.712H98.7188ZM92.4788 37.592C92.6388 38.9787 93.0601 39.9867 93.7428 40.616C94.4254 41.2347 95.3054 41.544 96.3828 41.544C96.9588 41.544 97.4548 41.4747 97.8708 41.336C98.2868 41.1973 98.6548 41.0427 98.9748 40.872C99.3054 40.7013 99.6041 40.5467 99.8708 40.408C100.148 40.2693 100.436 40.2 100.735 40.2C101.129 40.2 101.428 40.344 101.631 40.632L103.071 42.408C102.559 42.9947 102.004 43.4747 101.407 43.848C100.82 44.2107 100.212 44.4987 99.5828 44.712C98.9641 44.9147 98.3401 45.0533 97.7108 45.128C97.0921 45.2133 96.5001 45.256 95.9348 45.256C94.7721 45.256 93.6788 45.0693 92.6548 44.696C91.6414 44.312 90.7508 43.7467 89.9828 43C89.2254 42.2533 88.6228 41.3253 88.1748 40.216C87.7374 39.1067 87.5188 37.816 87.5188 36.344C87.5188 35.2347 87.7054 34.184 88.0788 33.192C88.4628 32.2 89.0068 31.3307 89.7108 30.584C90.4254 29.8373 91.2841 29.2453 92.2868 28.808C93.3001 28.3707 94.4414 28.152 95.7108 28.152C96.8094 28.152 97.8121 28.3227 98.7188 28.664C99.6361 29.0053 100.42 29.5013 101.071 30.152C101.732 30.8027 102.244 31.6027 102.607 32.552C102.98 33.4907 103.167 34.5573 103.167 35.752C103.167 36.1253 103.151 36.4293 103.119 36.664C103.087 36.8987 103.028 37.0853 102.943 37.224C102.857 37.3627 102.74 37.4587 102.591 37.512C102.452 37.5653 102.271 37.592 102.047 37.592H92.4788ZM111.366 45.256C110.577 45.256 109.878 45.144 109.27 44.92C108.673 44.6853 108.166 44.36 107.75 43.944C107.345 43.5173 107.035 43.0053 106.822 42.408C106.609 41.8107 106.502 41.144 106.502 40.408V31.832H105.094C104.838 31.832 104.619 31.752 104.438 31.592C104.257 31.4213 104.166 31.176 104.166 30.856V28.92L106.806 28.408L107.782 24.36C107.91 23.848 108.273 23.592 108.87 23.592H111.462V28.44H115.574V31.832H111.462V40.072C111.462 40.456 111.553 40.776 111.734 41.032C111.926 41.2773 112.198 41.4 112.55 41.4C112.731 41.4 112.881 41.384 112.998 41.352C113.126 41.3093 113.233 41.2667 113.318 41.224C113.414 41.1707 113.499 41.128 113.574 41.096C113.659 41.0533 113.755 41.032 113.862 41.032C114.011 41.032 114.129 41.0693 114.214 41.144C114.31 41.208 114.406 41.3147 114.502 41.464L116.006 43.816C115.366 44.296 114.646 44.6587 113.846 44.904C113.046 45.1387 112.219 45.256 111.366 45.256ZM136.92 36.088L134.76 29.704C134.6 29.2987 134.429 28.824 134.248 28.28C134.066 27.7253 133.885 27.128 133.704 26.488C133.544 27.1387 133.373 27.7413 133.192 28.296C133.01 28.8507 132.84 29.3307 132.68 29.736L130.536 36.088H136.92ZM145.512 45H141.32C140.85 45 140.472 44.8933 140.184 44.68C139.896 44.456 139.677 44.1733 139.528 43.832L138.152 39.768H129.288L127.912 43.832C127.794 44.1307 127.581 44.4027 127.272 44.648C126.973 44.8827 126.6 45 126.152 45H121.928L130.952 21.688H136.488L145.512 45ZM151.35 30.2C151.67 29.9013 152 29.624 152.342 29.368C152.683 29.112 153.046 28.8987 153.43 28.728C153.824 28.5467 154.246 28.408 154.694 28.312C155.152 28.2053 155.648 28.152 156.182 28.152C157.088 28.152 157.888 28.312 158.582 28.632C159.286 28.9413 159.878 29.3787 160.358 29.944C160.838 30.4987 161.2 31.1653 161.446 31.944C161.691 32.712 161.814 33.5493 161.814 34.456V45H156.854V34.456C156.854 33.6453 156.667 33.016 156.294 32.568C155.92 32.1093 155.371 31.88 154.646 31.88C154.102 31.88 153.59 31.9973 153.11 32.232C152.64 32.456 152.182 32.7653 151.734 33.16V45H146.774V28.408H149.846C150.464 28.408 150.87 28.6853 151.062 29.24L151.35 30.2ZM172.672 28.152C173.93 28.152 175.077 28.3493 176.112 28.744C177.146 29.1387 178.032 29.704 178.768 30.44C179.514 31.176 180.09 32.072 180.496 33.128C180.912 34.1733 181.12 35.352 181.12 36.664C181.12 37.9867 180.912 39.1813 180.496 40.248C180.09 41.304 179.514 42.2053 178.768 42.952C178.032 43.688 177.146 44.2587 176.112 44.664C175.077 45.0587 173.93 45.256 172.672 45.256C171.402 45.256 170.245 45.0587 169.2 44.664C168.165 44.2587 167.269 43.688 166.512 42.952C165.765 42.2053 165.184 41.304 164.768 40.248C164.362 39.1813 164.16 37.9867 164.16 36.664C164.16 35.352 164.362 34.1733 164.768 33.128C165.184 32.072 165.765 31.176 166.512 30.44C167.269 29.704 168.165 29.1387 169.2 28.744C170.245 28.3493 171.402 28.152 172.672 28.152ZM172.672 41.576C173.813 41.576 174.65 41.176 175.184 40.376C175.728 39.5653 176 38.3387 176 36.696C176 35.0533 175.728 33.832 175.184 33.032C174.65 32.232 173.813 31.832 172.672 31.832C171.498 31.832 170.64 32.232 170.096 33.032C169.552 33.832 169.28 35.0533 169.28 36.696C169.28 38.3387 169.552 39.5653 170.096 40.376C170.64 41.176 171.498 41.576 172.672 41.576ZM189.21 45.256C188.42 45.256 187.722 45.144 187.114 44.92C186.516 44.6853 186.01 44.36 185.594 43.944C185.188 43.5173 184.879 43.0053 184.666 42.408C184.452 41.8107 184.346 41.144 184.346 40.408V31.832H182.938C182.682 31.832 182.463 31.752 182.282 31.592C182.1 31.4213 182.01 31.176 182.01 30.856V28.92L184.65 28.408L185.626 24.36C185.754 23.848 186.116 23.592 186.714 23.592H189.306V28.44H193.418V31.832H189.306V40.072C189.306 40.456 189.396 40.776 189.578 41.032C189.77 41.2773 190.042 41.4 190.394 41.4C190.575 41.4 190.724 41.384 190.842 41.352C190.97 41.3093 191.076 41.2667 191.162 41.224C191.258 41.1707 191.343 41.128 191.418 41.096C191.503 41.0533 191.599 41.032 191.706 41.032C191.855 41.032 191.972 41.0693 192.058 41.144C192.154 41.208 192.25 41.3147 192.346 41.464L193.85 43.816C193.21 44.296 192.49 44.6587 191.69 44.904C190.89 45.1387 190.063 45.256 189.21 45.256ZM200.515 29.864C201.112 29.352 201.758 28.9413 202.451 28.632C203.155 28.312 203.992 28.152 204.963 28.152C205.87 28.152 206.67 28.312 207.363 28.632C208.067 28.9413 208.659 29.3787 209.139 29.944C209.619 30.4987 209.982 31.1653 210.227 31.944C210.472 32.712 210.595 33.5493 210.595 34.456V45H205.635V34.456C205.635 33.6453 205.448 33.016 205.075 32.568C204.702 32.1093 204.152 31.88 203.427 31.88C202.883 31.88 202.371 31.9973 201.891 32.232C201.422 32.456 200.963 32.7653 200.515 33.16V45H195.555V21.048H200.515V29.864ZM224.125 34.712C224.125 34.3173 224.072 33.9333 223.965 33.56C223.869 33.1867 223.704 32.856 223.469 32.568C223.245 32.2693 222.946 32.0293 222.573 31.848C222.2 31.6667 221.746 31.576 221.213 31.576C220.274 31.576 219.538 31.848 219.005 32.392C218.472 32.9253 218.12 33.6987 217.949 34.712H224.125ZM217.885 37.592C218.045 38.9787 218.466 39.9867 219.149 40.616C219.832 41.2347 220.712 41.544 221.789 41.544C222.365 41.544 222.861 41.4747 223.277 41.336C223.693 41.1973 224.061 41.0427 224.381 40.872C224.712 40.7013 225.01 40.5467 225.277 40.408C225.554 40.2693 225.842 40.2 226.141 40.2C226.536 40.2 226.834 40.344 227.037 40.632L228.477 42.408C227.965 42.9947 227.41 43.4747 226.813 43.848C226.226 44.2107 225.618 44.4987 224.989 44.712C224.37 44.9147 223.746 45.0533 223.117 45.128C222.498 45.2133 221.906 45.256 221.341 45.256C220.178 45.256 219.085 45.0693 218.061 44.696C217.048 44.312 216.157 43.7467 215.389 43C214.632 42.2533 214.029 41.3253 213.581 40.216C213.144 39.1067 212.925 37.816 212.925 36.344C212.925 35.2347 213.112 34.184 213.485 33.192C213.869 32.2 214.413 31.3307 215.117 30.584C215.832 29.8373 216.69 29.2453 217.693 28.808C218.706 28.3707 219.848 28.152 221.117 28.152C222.216 28.152 223.218 28.3227 224.125 28.664C225.042 29.0053 225.826 29.5013 226.477 30.152C227.138 30.8027 227.65 31.6027 228.013 32.552C228.386 33.4907 228.573 34.5573 228.573 35.752C228.573 36.1253 228.557 36.4293 228.525 36.664C228.493 36.8987 228.434 37.0853 228.349 37.224C228.264 37.3627 228.146 37.4587 227.997 37.512C227.858 37.5653 227.677 37.592 227.453 37.592H217.885ZM235.695 30.968C236.207 30.072 236.794 29.368 237.455 28.856C238.127 28.344 238.895 28.088 239.759 28.088C240.506 28.088 241.114 28.264 241.583 28.616L241.263 32.264C241.21 32.4987 241.119 32.6587 240.991 32.744C240.874 32.8293 240.708 32.872 240.495 32.872C240.41 32.872 240.298 32.8667 240.159 32.856C240.02 32.8453 239.876 32.8347 239.727 32.824C239.578 32.8027 239.423 32.7867 239.263 32.776C239.114 32.7547 238.975 32.744 238.847 32.744C238.122 32.744 237.54 32.936 237.103 33.32C236.676 33.704 236.314 34.2373 236.015 34.92V45H231.055V28.408H233.999C234.244 28.408 234.447 28.4293 234.607 28.472C234.778 28.5147 234.916 28.584 235.023 28.68C235.14 28.7653 235.226 28.8827 235.279 29.032C235.343 29.1813 235.396 29.3627 235.439 29.576L235.695 30.968ZM266.312 38.968C266.44 38.968 266.568 38.9947 266.696 39.048C266.824 39.0907 266.946 39.1707 267.064 39.288L269.208 41.544C268.269 42.7707 267.09 43.6987 265.672 44.328C264.264 44.9467 262.594 45.256 260.664 45.256C258.893 45.256 257.304 44.9573 255.896 44.36C254.498 43.752 253.309 42.92 252.328 41.864C251.357 40.7973 250.61 39.5387 250.088 38.088C249.565 36.6267 249.304 35.0427 249.304 33.336C249.304 31.5973 249.586 30.0027 250.152 28.552C250.717 27.0907 251.512 25.832 252.536 24.776C253.56 23.72 254.786 22.8987 256.216 22.312C257.645 21.7253 259.218 21.432 260.936 21.432C261.81 21.432 262.632 21.512 263.4 21.672C264.178 21.8213 264.904 22.0347 265.576 22.312C266.248 22.5787 266.866 22.904 267.432 23.288C267.997 23.672 268.498 24.088 268.936 24.536L267.112 26.984C266.994 27.1333 266.856 27.272 266.696 27.4C266.536 27.5173 266.312 27.576 266.024 27.576C265.832 27.576 265.65 27.5333 265.48 27.448C265.309 27.3627 265.128 27.2613 264.936 27.144C264.744 27.016 264.53 26.8827 264.296 26.744C264.072 26.5947 263.8 26.4613 263.48 26.344C263.17 26.216 262.802 26.1093 262.376 26.024C261.96 25.9387 261.469 25.896 260.904 25.896C260.008 25.896 259.186 26.0613 258.44 26.392C257.704 26.7227 257.064 27.208 256.52 27.848C255.986 28.4773 255.57 29.256 255.272 30.184C254.984 31.1013 254.84 32.152 254.84 33.336C254.84 34.5307 255 35.592 255.32 36.52C255.65 37.448 256.093 38.232 256.648 38.872C257.213 39.5013 257.869 39.9813 258.616 40.312C259.362 40.6427 260.162 40.808 261.016 40.808C261.506 40.808 261.954 40.7867 262.36 40.744C262.765 40.6907 263.144 40.6107 263.496 40.504C263.848 40.3867 264.178 40.2373 264.488 40.056C264.797 39.864 265.112 39.624 265.432 39.336C265.56 39.2293 265.698 39.144 265.848 39.08C265.997 39.0053 266.152 38.968 266.312 38.968ZM275.953 29.864C276.55 29.352 277.195 28.9413 277.889 28.632C278.593 28.312 279.43 28.152 280.401 28.152C281.307 28.152 282.107 28.312 282.801 28.632C283.505 28.9413 284.097 29.3787 284.577 29.944C285.057 30.4987 285.419 31.1653 285.665 31.944C285.91 32.712 286.033 33.5493 286.033 34.456V45H281.073V34.456C281.073 33.6453 280.886 33.016 280.513 32.568C280.139 32.1093 279.59 31.88 278.865 31.88C278.321 31.88 277.809 31.9973 277.329 32.232C276.859 32.456 276.401 32.7653 275.953 33.16V45H270.993V21.048H275.953V29.864ZM297.803 38.248C296.811 38.2907 295.995 38.376 295.355 38.504C294.715 38.632 294.208 38.792 293.835 38.984C293.461 39.176 293.2 39.3947 293.051 39.64C292.912 39.8853 292.843 40.152 292.843 40.44C292.843 41.0053 292.997 41.4053 293.307 41.64C293.616 41.864 294.069 41.976 294.667 41.976C295.307 41.976 295.867 41.864 296.347 41.64C296.827 41.416 297.312 41.0533 297.803 40.552V38.248ZM288.875 30.712C289.877 29.8267 290.987 29.1707 292.203 28.744C293.429 28.3067 294.741 28.088 296.139 28.088C297.141 28.088 298.043 28.2533 298.843 28.584C299.653 28.904 300.336 29.3573 300.891 29.944C301.456 30.52 301.888 31.208 302.187 32.008C302.485 32.808 302.635 33.6827 302.635 34.632V45H300.363C299.893 45 299.536 44.936 299.291 44.808C299.056 44.68 298.859 44.4133 298.699 44.008L298.347 43.096C297.931 43.448 297.531 43.7573 297.147 44.024C296.763 44.2907 296.363 44.52 295.947 44.712C295.541 44.8933 295.104 45.0267 294.635 45.112C294.176 45.208 293.664 45.256 293.099 45.256C292.341 45.256 291.653 45.16 291.035 44.968C290.416 44.7653 289.888 44.472 289.451 44.088C289.024 43.704 288.693 43.2293 288.459 42.664C288.224 42.088 288.107 41.4267 288.107 40.68C288.107 40.0827 288.256 39.48 288.555 38.872C288.853 38.2533 289.371 37.6933 290.107 37.192C290.843 36.68 291.835 36.2533 293.083 35.912C294.331 35.5707 295.904 35.3787 297.803 35.336V34.632C297.803 33.6613 297.6 32.9627 297.195 32.536C296.8 32.0987 296.235 31.88 295.499 31.88C294.912 31.88 294.432 31.944 294.059 32.072C293.685 32.2 293.349 32.344 293.051 32.504C292.763 32.664 292.48 32.808 292.203 32.936C291.925 33.064 291.595 33.128 291.211 33.128C290.869 33.128 290.581 33.0427 290.347 32.872C290.112 32.7013 289.92 32.4987 289.771 32.264L288.875 30.712ZM310.445 30.968C310.957 30.072 311.544 29.368 312.205 28.856C312.877 28.344 313.645 28.088 314.509 28.088C315.256 28.088 315.864 28.264 316.333 28.616L316.013 32.264C315.96 32.4987 315.869 32.6587 315.741 32.744C315.624 32.8293 315.458 32.872 315.245 32.872C315.16 32.872 315.048 32.8667 314.909 32.856C314.77 32.8453 314.626 32.8347 314.477 32.824C314.328 32.8027 314.173 32.7867 314.013 32.776C313.864 32.7547 313.725 32.744 313.597 32.744C312.872 32.744 312.29 32.936 311.853 33.32C311.426 33.704 311.064 34.2373 310.765 34.92V45H305.805V28.408H308.749C308.994 28.408 309.197 28.4293 309.357 28.472C309.528 28.5147 309.666 28.584 309.773 28.68C309.89 28.7653 309.976 28.8827 310.029 29.032C310.093 29.1813 310.146 29.3627 310.189 29.576L310.445 30.968ZM326.428 38.248C325.436 38.2907 324.62 38.376 323.98 38.504C323.34 38.632 322.833 38.792 322.46 38.984C322.086 39.176 321.825 39.3947 321.676 39.64C321.537 39.8853 321.468 40.152 321.468 40.44C321.468 41.0053 321.622 41.4053 321.932 41.64C322.241 41.864 322.694 41.976 323.292 41.976C323.932 41.976 324.492 41.864 324.972 41.64C325.452 41.416 325.937 41.0533 326.428 40.552V38.248ZM317.5 30.712C318.502 29.8267 319.612 29.1707 320.828 28.744C322.054 28.3067 323.366 28.088 324.764 28.088C325.766 28.088 326.668 28.2533 327.468 28.584C328.278 28.904 328.961 29.3573 329.516 29.944C330.081 30.52 330.513 31.208 330.812 32.008C331.11 32.808 331.26 33.6827 331.26 34.632V45H328.988C328.518 45 328.161 44.936 327.916 44.808C327.681 44.68 327.484 44.4133 327.324 44.008L326.972 43.096C326.556 43.448 326.156 43.7573 325.772 44.024C325.388 44.2907 324.988 44.52 324.572 44.712C324.166 44.8933 323.729 45.0267 323.26 45.112C322.801 45.208 322.289 45.256 321.724 45.256C320.966 45.256 320.278 45.16 319.66 44.968C319.041 44.7653 318.513 44.472 318.076 44.088C317.649 43.704 317.318 43.2293 317.084 42.664C316.849 42.088 316.732 41.4267 316.732 40.68C316.732 40.0827 316.881 39.48 317.18 38.872C317.478 38.2533 317.996 37.6933 318.732 37.192C319.468 36.68 320.46 36.2533 321.708 35.912C322.956 35.5707 324.529 35.3787 326.428 35.336V34.632C326.428 33.6613 326.225 32.9627 325.82 32.536C325.425 32.0987 324.86 31.88 324.124 31.88C323.537 31.88 323.057 31.944 322.684 32.072C322.31 32.2 321.974 32.344 321.676 32.504C321.388 32.664 321.105 32.808 320.828 32.936C320.55 33.064 320.22 33.128 319.836 33.128C319.494 33.128 319.206 33.0427 318.972 32.872C318.737 32.7013 318.545 32.4987 318.396 32.264L317.5 30.712ZM346.622 32.344C346.473 32.5253 346.329 32.6693 346.19 32.776C346.051 32.8827 345.854 32.936 345.598 32.936C345.353 32.936 345.129 32.8773 344.926 32.76C344.734 32.6427 344.515 32.5147 344.27 32.376C344.025 32.2267 343.737 32.0933 343.406 31.976C343.075 31.8587 342.665 31.8 342.174 31.8C341.566 31.8 341.038 31.912 340.59 32.136C340.153 32.36 339.79 32.68 339.502 33.096C339.214 33.512 339.001 34.024 338.862 34.632C338.723 35.2293 338.654 35.9067 338.654 36.664C338.654 38.2533 338.958 39.4747 339.566 40.328C340.185 41.1813 341.033 41.608 342.11 41.608C342.686 41.608 343.139 41.5387 343.47 41.4C343.811 41.2507 344.099 41.0907 344.334 40.92C344.569 40.7387 344.782 40.5733 344.974 40.424C345.177 40.2747 345.427 40.2 345.726 40.2C346.121 40.2 346.419 40.344 346.622 40.632L348.062 42.408C347.55 42.9947 347.011 43.4747 346.446 43.848C345.881 44.2107 345.299 44.4987 344.702 44.712C344.115 44.9147 343.523 45.0533 342.926 45.128C342.329 45.2133 341.747 45.256 341.182 45.256C340.169 45.256 339.198 45.064 338.27 44.68C337.353 44.296 336.542 43.7413 335.838 43.016C335.145 42.28 334.59 41.3787 334.174 40.312C333.769 39.2453 333.566 38.0293 333.566 36.664C333.566 35.4693 333.742 34.3547 334.094 33.32C334.457 32.2747 334.985 31.3733 335.678 30.616C336.382 29.848 337.246 29.2453 338.27 28.808C339.305 28.3707 340.499 28.152 341.854 28.152C343.155 28.152 344.297 28.36 345.278 28.776C346.259 29.192 347.145 29.8 347.934 30.6L346.622 32.344ZM355.929 45.256C355.139 45.256 354.441 45.144 353.833 44.92C353.235 44.6853 352.729 44.36 352.312 43.944C351.907 43.5173 351.598 43.0053 351.385 42.408C351.171 41.8107 351.065 41.144 351.065 40.408V31.832H349.657C349.401 31.832 349.182 31.752 349.001 31.592C348.819 31.4213 348.729 31.176 348.729 30.856V28.92L351.369 28.408L352.345 24.36C352.473 23.848 352.835 23.592 353.433 23.592H356.025V28.44H360.137V31.832H356.025V40.072C356.025 40.456 356.115 40.776 356.297 41.032C356.489 41.2773 356.761 41.4 357.113 41.4C357.294 41.4 357.443 41.384 357.561 41.352C357.689 41.3093 357.795 41.2667 357.881 41.224C357.977 41.1707 358.062 41.128 358.137 41.096C358.222 41.0533 358.318 41.032 358.425 41.032C358.574 41.032 358.691 41.0693 358.777 41.144C358.873 41.208 358.969 41.3147 359.065 41.464L360.569 43.816C359.929 44.296 359.209 44.6587 358.409 44.904C357.609 45.1387 356.782 45.256 355.929 45.256ZM372.438 34.712C372.438 34.3173 372.384 33.9333 372.278 33.56C372.182 33.1867 372.016 32.856 371.782 32.568C371.558 32.2693 371.259 32.0293 370.886 31.848C370.512 31.6667 370.059 31.576 369.526 31.576C368.587 31.576 367.851 31.848 367.318 32.392C366.784 32.9253 366.432 33.6987 366.262 34.712H372.438ZM366.198 37.592C366.358 38.9787 366.779 39.9867 367.462 40.616C368.144 41.2347 369.024 41.544 370.102 41.544C370.678 41.544 371.174 41.4747 371.59 41.336C372.006 41.1973 372.374 41.0427 372.694 40.872C373.024 40.7013 373.323 40.5467 373.59 40.408C373.867 40.2693 374.155 40.2 374.454 40.2C374.848 40.2 375.147 40.344 375.35 40.632L376.79 42.408C376.278 42.9947 375.723 43.4747 375.126 43.848C374.539 44.2107 373.931 44.4987 373.302 44.712C372.683 44.9147 372.059 45.0533 371.43 45.128C370.811 45.2133 370.219 45.256 369.654 45.256C368.491 45.256 367.398 45.0693 366.374 44.696C365.36 44.312 364.47 43.7467 363.702 43C362.944 42.2533 362.342 41.3253 361.894 40.216C361.456 39.1067 361.238 37.816 361.238 36.344C361.238 35.2347 361.424 34.184 361.798 33.192C362.182 32.2 362.726 31.3307 363.43 30.584C364.144 29.8373 365.003 29.2453 366.006 28.808C367.019 28.3707 368.16 28.152 369.43 28.152C370.528 28.152 371.531 28.3227 372.438 28.664C373.355 29.0053 374.139 29.5013 374.79 30.152C375.451 30.8027 375.963 31.6027 376.326 32.552C376.699 33.4907 376.885 34.5573 376.885 35.752C376.885 36.1253 376.87 36.4293 376.838 36.664C376.806 36.8987 376.747 37.0853 376.662 37.224C376.576 37.3627 376.459 37.4587 376.31 37.512C376.171 37.5653 375.99 37.592 375.766 37.592H366.198ZM384.008 30.968C384.52 30.072 385.106 29.368 385.767 28.856C386.44 28.344 387.208 28.088 388.072 28.088C388.818 28.088 389.426 28.264 389.896 28.616L389.576 32.264C389.522 32.4987 389.432 32.6587 389.304 32.744C389.186 32.8293 389.021 32.872 388.808 32.872C388.722 32.872 388.61 32.8667 388.472 32.856C388.333 32.8453 388.189 32.8347 388.04 32.824C387.89 32.8027 387.736 32.7867 387.576 32.776C387.426 32.7547 387.288 32.744 387.16 32.744C386.434 32.744 385.853 32.936 385.416 33.32C384.989 33.704 384.626 34.2373 384.328 34.92V45H379.368V28.408H382.312C382.557 28.408 382.76 28.4293 382.92 28.472C383.09 28.5147 383.229 28.584 383.336 28.68C383.453 28.7653 383.538 28.8827 383.592 29.032C383.656 29.1813 383.709 29.3627 383.752 29.576L384.008 30.968ZM408.128 40.92C408.843 40.92 409.424 40.8293 409.872 40.648C410.331 40.4667 410.688 40.232 410.944 39.944C411.2 39.656 411.376 39.3307 411.472 38.968C411.568 38.6053 411.616 38.2373 411.616 37.864C411.616 37.4373 411.558 37.0533 411.44 36.712C411.334 36.3707 411.142 36.0827 410.864 35.848C410.598 35.6133 410.24 35.432 409.792 35.304C409.344 35.176 408.779 35.112 408.096 35.112H404.32V40.92H408.128ZM404.32 25.736V31.496H407.136C407.734 31.496 408.272 31.4533 408.752 31.368C409.232 31.2827 409.638 31.1333 409.968 30.92C410.31 30.7067 410.566 30.4133 410.736 30.04C410.918 29.6667 411.008 29.1973 411.008 28.632C411.008 28.0773 410.939 27.6187 410.8 27.256C410.662 26.8827 410.448 26.584 410.16 26.36C409.872 26.136 409.504 25.976 409.056 25.88C408.619 25.784 408.096 25.736 407.488 25.736H404.32ZM407.488 21.688C409.099 21.688 410.47 21.8373 411.6 22.136C412.731 22.4347 413.654 22.856 414.368 23.4C415.083 23.944 415.6 24.6053 415.92 25.384C416.251 26.1627 416.416 27.032 416.416 27.992C416.416 28.5147 416.342 29.0213 416.192 29.512C416.043 29.992 415.808 30.4453 415.488 30.872C415.168 31.288 414.758 31.672 414.256 32.024C413.755 32.376 413.152 32.68 412.448 32.936C413.984 33.3093 415.12 33.912 415.856 34.744C416.592 35.576 416.96 36.6533 416.96 37.976C416.96 38.968 416.768 39.8907 416.384 40.744C416 41.5973 415.435 42.344 414.688 42.984C413.952 43.6133 413.04 44.1093 411.952 44.472C410.864 44.824 409.622 45 408.224 45H398.912V21.688H407.488ZM434.404 28.408V45H431.332C430.713 45 430.308 44.7227 430.116 44.168L429.828 43.208C429.508 43.5173 429.177 43.8 428.836 44.056C428.494 44.3013 428.126 44.5147 427.732 44.696C427.348 44.8667 426.926 45 426.468 45.096C426.02 45.2027 425.529 45.256 424.996 45.256C424.089 45.256 423.284 45.1013 422.58 44.792C421.886 44.472 421.3 44.0293 420.82 43.464C420.34 42.8987 419.977 42.232 419.732 41.464C419.486 40.696 419.364 39.8533 419.364 38.936V28.408H424.324V38.936C424.324 39.7573 424.51 40.392 424.884 40.84C425.257 41.288 425.806 41.512 426.532 41.512C427.076 41.512 427.582 41.4 428.052 41.176C428.532 40.9413 428.996 40.6267 429.444 40.232V28.408H434.404ZM442.846 28.408V45H437.886V28.408H442.846ZM443.358 23.864C443.358 24.2587 443.278 24.632 443.118 24.984C442.958 25.3253 442.739 25.6293 442.462 25.896C442.184 26.152 441.859 26.36 441.486 26.52C441.123 26.6693 440.734 26.744 440.318 26.744C439.912 26.744 439.534 26.6693 439.182 26.52C438.83 26.36 438.515 26.152 438.238 25.896C437.971 25.6293 437.758 25.3253 437.598 24.984C437.448 24.632 437.374 24.2587 437.374 23.864C437.374 23.4587 437.448 23.08 437.598 22.728C437.758 22.376 437.971 22.0667 438.238 21.8C438.515 21.5333 438.83 21.3253 439.182 21.176C439.534 21.0267 439.912 20.952 440.318 20.952C440.734 20.952 441.123 21.0267 441.486 21.176C441.859 21.3253 442.184 21.5333 442.462 21.8C442.739 22.0667 442.958 22.376 443.118 22.728C443.278 23.08 443.358 23.4587 443.358 23.864ZM451.265 21.048V45H446.305V21.048H451.265ZM464.682 32.856C464.308 32.44 463.903 32.152 463.466 31.992C463.028 31.8213 462.57 31.736 462.09 31.736C461.631 31.736 461.21 31.8267 460.826 32.008C460.442 32.1893 460.106 32.4827 459.818 32.888C459.54 33.2827 459.322 33.8 459.162 34.44C459.002 35.08 458.922 35.8533 458.922 36.76C458.922 37.6347 458.986 38.3707 459.114 38.968C459.242 39.5653 459.418 40.0507 459.642 40.424C459.876 40.7867 460.154 41.048 460.474 41.208C460.794 41.368 461.151 41.448 461.546 41.448C461.908 41.448 462.234 41.416 462.522 41.352C462.82 41.2773 463.092 41.176 463.338 41.048C463.583 40.92 463.812 40.76 464.026 40.568C464.25 40.3653 464.468 40.136 464.682 39.88V32.856ZM469.642 21.048V45H466.57C465.951 45 465.546 44.7227 465.354 44.168L464.97 42.904C464.639 43.256 464.292 43.576 463.93 43.864C463.567 44.152 463.172 44.4027 462.746 44.616C462.33 44.8187 461.876 44.9733 461.385 45.08C460.906 45.1973 460.383 45.256 459.818 45.256C458.954 45.256 458.154 45.064 457.418 44.68C456.682 44.296 456.047 43.7413 455.514 43.016C454.98 42.2907 454.559 41.4053 454.25 40.36C453.951 39.304 453.802 38.104 453.802 36.76C453.802 35.5227 453.972 34.376 454.314 33.32C454.655 32.2533 455.135 31.336 455.754 30.568C456.383 29.7893 457.135 29.1813 458.01 28.744C458.884 28.3067 459.85 28.088 460.906 28.088C461.77 28.088 462.495 28.2107 463.082 28.456C463.668 28.7013 464.202 29.032 464.682 29.448V21.048H469.642ZM483.313 34.712C483.313 34.3173 483.259 33.9333 483.153 33.56C483.057 33.1867 482.891 32.856 482.657 32.568C482.433 32.2693 482.134 32.0293 481.761 31.848C481.387 31.6667 480.934 31.576 480.401 31.576C479.462 31.576 478.726 31.848 478.193 32.392C477.659 32.9253 477.307 33.6987 477.137 34.712H483.313ZM477.073 37.592C477.233 38.9787 477.654 39.9867 478.337 40.616C479.019 41.2347 479.899 41.544 480.977 41.544C481.553 41.544 482.049 41.4747 482.465 41.336C482.881 41.1973 483.249 41.0427 483.569 40.872C483.899 40.7013 484.198 40.5467 484.465 40.408C484.742 40.2693 485.03 40.2 485.329 40.2C485.723 40.2 486.022 40.344 486.225 40.632L487.665 42.408C487.153 42.9947 486.598 43.4747 486.001 43.848C485.414 44.2107 484.806 44.4987 484.177 44.712C483.558 44.9147 482.934 45.0533 482.305 45.128C481.686 45.2133 481.094 45.256 480.529 45.256C479.366 45.256 478.273 45.0693 477.249 44.696C476.235 44.312 475.345 43.7467 474.577 43C473.819 42.2533 473.217 41.3253 472.769 40.216C472.331 39.1067 472.113 37.816 472.113 36.344C472.113 35.2347 472.299 34.184 472.673 33.192C473.057 32.2 473.601 31.3307 474.305 30.584C475.019 29.8373 475.878 29.2453 476.881 28.808C477.894 28.3707 479.035 28.152 480.305 28.152C481.403 28.152 482.406 28.3227 483.313 28.664C484.23 29.0053 485.014 29.5013 485.665 30.152C486.326 30.8027 486.838 31.6027 487.201 32.552C487.574 33.4907 487.76 34.5573 487.76 35.752C487.76 36.1253 487.745 36.4293 487.713 36.664C487.681 36.8987 487.622 37.0853 487.537 37.224C487.451 37.3627 487.334 37.4587 487.185 37.512C487.046 37.5653 486.865 37.592 486.641 37.592H477.073ZM494.883 30.968C495.395 30.072 495.981 29.368 496.642 28.856C497.315 28.344 498.083 28.088 498.947 28.088C499.693 28.088 500.301 28.264 500.771 28.616L500.451 32.264C500.397 32.4987 500.307 32.6587 500.179 32.744C500.061 32.8293 499.896 32.872 499.683 32.872C499.597 32.872 499.485 32.8667 499.347 32.856C499.208 32.8453 499.064 32.8347 498.915 32.824C498.765 32.8027 498.611 32.7867 498.451 32.776C498.301 32.7547 498.163 32.744 498.035 32.744C497.309 32.744 496.728 32.936 496.291 33.32C495.864 33.704 495.501 34.2373 495.203 34.92V45H490.243V28.408H493.187C493.432 28.408 493.635 28.4293 493.795 28.472C493.965 28.5147 494.104 28.584 494.211 28.68C494.328 28.7653 494.413 28.8827 494.467 29.032C494.531 29.1813 494.584 29.3627 494.627 29.576L494.883 30.968Z" fill="white"/>
</svg>
